<?xml version="1.0" encoding="UTF-8"?>
<svg width="38px" height="38px" viewBox="0 0 38 38" version="1.1" xmlns="http://www.w3.org/2000/svg" xmlns:xlink="http://www.w3.org/1999/xlink">
    <!-- Generator: Sketch 49 (51002) - http://www.bohemiancoding.com/sketch -->
    <title>facebook_color</title>
    <desc>Created with Sketch.</desc>
    <defs></defs>
    <g id="Page-1" stroke="none" stroke-width="1" fill="none" fill-rule="evenodd">
        <g id="facebook_color">
            <rect id="button-bg-copy" fill="#FFFFFF" x="0" y="0" width="38" height="38" rx="1"></rect>
            <path d="M28,11.0044643 L28,26.9955357 C28,27.2633931 27.9062502,27.4977679 27.71875,27.6986607 C27.5312498,27.8995536 27.2901784,28 26.9955357,28 L22.4151786,28 L22.4151786,21.0089286 L24.7455357,21.0089286 L25.1071429,18.3169643 L22.4151786,18.3169643 L22.4151786,16.5892857 C22.4151786,16.1339288 22.4955357,15.8125002 22.65625,15.625 C22.8705355,15.3839286 23.2321427,15.2633929 23.7410714,15.2633929 L25.1875,15.2633929 L25.1875,12.8125 C24.625,12.7589288 23.9285716,12.7321429 23.0982143,12.7321429 C22.0535714,12.7321429 21.2098214,13.0401788 20.5669643,13.65625 C19.9241071,14.2723212 19.6026786,15.1562498 19.6026786,16.3080357 L19.6026786,18.3169643 L17.2723214,18.3169643 L17.2723214,21.0089286 L19.6026786,21.0089286 L19.6026786,28 L11.0044643,28 C10.7098216,28 10.4687502,27.8995536 10.28125,27.6986607 C10.0937498,27.4977679 10,27.2633931 10,26.9955357 L10,11.0044643 C10,10.7098216 10.0937498,10.4687502 10.28125,10.28125 C10.4687502,10.0937498 10.7098216,10 11.0044643,10 L26.9955357,10 C27.2633931,10 27.4977679,10.0937498 27.6986607,10.28125 C27.8995536,10.4687502 28,10.7098216 28,11.0044643 Z" id="facebook" fill="#3C5A99"></path>
        </g>
    </g>
</svg>