<?xml version="1.0" encoding="UTF-8"?> <!-- Generator: Adobe Illustrator 23.0.2, SVG Export Plug-In . SVG Version: 6.00 Build 0) --> <svg xmlns="http://www.w3.org/2000/svg" xmlns:xlink="http://www.w3.org/1999/xlink" id="Layer_1" x="0px" y="0px" viewBox="0 0 400 245" style="enable-background:new 0 0 400 245;" xml:space="preserve"> <style type="text/css"> .st0{fill:#58595B;} .st1{fill:#0E5AA8;} .st2{fill:#0D5AA8;} .st3{fill:#0D5BA9;} .st4{fill:#0B5CAA;} .st5{fill:#0E5CAA;} .st6{fill:#0A5DAB;} .st7{fill:#0D5EAB;} .st8{fill:#095FAC;} .st9{fill:#0C5FAC;} .st10{fill:#0860AD;} .st11{fill:#0B61AD;} .st12{fill:#0961AD;} .st13{fill:#0A62AE;} .st14{fill:#0863AE;} .st15{fill:#0964AF;} .st16{fill:#0764AF;} .st17{fill:#0A65AF;} .st18{fill:#0666B0;} .st19{fill:#0966B1;} .st20{fill:#0567B1;} .st21{fill:#0868B2;} .st22{fill:#0668B2;} .st23{fill:#0769B3;} .st24{fill:#0569B3;} .st25{fill:#066AB4;} .st26{fill:#046BB4;} .st27{fill:#056CB5;} .st28{fill:#026CB5;} .st29{fill:#066DB5;} .st30{fill:#016EB6;} .st31{fill:#046EB6;} .st32{fill:#006FB7;} .st33{fill:#0370B8;} .st34{fill:#0070B8;} .st35{fill:#0171B9;} .st36{fill:#0072B9;} .st37{fill:#0073BA;} .st38{fill:#0074BB;} .st39{fill:#0075BB;} .st40{fill:#0076BC;} .st41{fill:#0077BD;} .st42{fill:#0078BD;} .st43{fill:#0079BE;} .st44{fill:#007ABF;} .st45{fill:#007BBF;} .st46{fill:#007CC0;} .st47{fill:#007DC1;} .st48{fill:#007EC2;} .st49{fill:#007FC3;} .st50{fill:#0080C3;} .st51{fill:#0080C4;} .st52{fill:#0081C4;} .st53{fill:#0081C5;} .st54{fill:#0082C6;} .st55{fill:#0083C6;} .st56{fill:#0084C7;} .st57{fill:#0085C7;} .st58{fill:#0085C8;} .st59{fill:#0086C8;} .st60{fill:#0087C9;} .st61{fill:#0088CA;} .st62{fill:#008ACB;} .st63{fill:#008BCC;} .st64{fill:#008CCD;} .st65{fill:#008DCD;} .st66{fill:#008ECE;} .st67{fill:#008FCF;} .st68{fill:#0090D0;} .st69{fill:#0091D0;} .st70{fill:#0092D1;} .st71{fill:#0093D2;} .st72{fill:#0094D3;} .st73{fill:#0095D3;} .st74{fill:#0096D4;} .st75{fill:#0097D5;} .st76{fill:#0098D6;} .st77{fill:#0099D6;} .st78{fill:#009AD7;} .st79{fill:#009CD8;} .st80{fill:#009CD9;} .st81{fill:#009DD9;} .st82{fill:#009EDA;} .st83{fill:#009FDA;} .st84{fill:#00A0DB;} .st85{fill:#00A0DC;} .st86{fill:#00A2DD;} .st87{fill:#00A3DD;} .st88{fill:#00A4DE;} .st89{fill:#00A5DF;} .st90{fill:#00A6E0;} .st91{fill:#00A7E0;} .st92{fill:#00A8E1;} .st93{fill:#00A9E2;} .st94{fill:#00AAE3;} .st95{fill:#00ABE3;} .st96{fill:#00ACE4;} .st97{fill:#00ADE5;} .st98{fill:#00AEE6;} .st99{fill:#00AFE6;} .st100{fill:#00B0E7;} .st101{fill:#00B1E7;} .st102{fill:#00B1E8;} .st103{fill:#00B3E9;} .st104{fill:#00B4EA;} .st105{fill:#00B5EA;} .st106{fill:#00B6EB;} .st107{fill:url(#SVGID_1_);} .st108{fill:url(#SVGID_2_);} .st109{fill:url(#SVGID_3_);} .st110{fill:url(#SVGID_4_);} .st111{fill:url(#SVGID_5_);} .st112{fill:url(#SVGID_6_);} .st113{fill:url(#SVGID_7_);} .st114{fill:url(#SVGID_8_);} .st115{fill:url(#SVGID_9_);} .st116{fill:url(#SVGID_10_);} .st117{fill:url(#SVGID_11_);} .st118{fill:url(#SVGID_12_);} .st119{fill:url(#SVGID_13_);} .st120{fill:url(#SVGID_14_);} .st121{fill:url(#SVGID_15_);} .st122{fill:url(#SVGID_16_);} .st123{fill:url(#SVGID_17_);} .st124{fill:url(#SVGID_18_);} .st125{fill:url(#SVGID_19_);} .st126{fill:url(#SVGID_20_);} .st127{fill:url(#SVGID_21_);} .st128{fill:url(#SVGID_22_);} .st129{fill:url(#SVGID_23_);} .st130{fill:url(#SVGID_24_);} .st131{fill:url(#SVGID_25_);} .st132{fill:url(#SVGID_26_);} .st133{fill:url(#SVGID_27_);} .st134{fill:url(#SVGID_28_);} .st135{fill:url(#SVGID_29_);} .st136{fill:url(#SVGID_30_);} .st137{fill:url(#SVGID_31_);} .st138{fill:url(#SVGID_32_);} .st139{fill:url(#SVGID_33_);} .st140{fill:url(#SVGID_34_);} .st141{fill:url(#SVGID_35_);} .st142{fill:url(#SVGID_36_);} .st143{fill:url(#SVGID_37_);} .st144{fill:url(#SVGID_38_);} .st145{fill:url(#SVGID_39_);} .st146{fill:url(#SVGID_40_);} .st147{fill:url(#SVGID_41_);} .st148{fill:url(#SVGID_42_);} .st149{fill:url(#SVGID_43_);} .st150{fill:url(#SVGID_44_);} .st151{fill:url(#SVGID_45_);} .st152{fill:url(#SVGID_46_);} .st153{fill:url(#SVGID_47_);} .st154{fill:url(#SVGID_48_);} .st155{fill:url(#SVGID_49_);} .st156{fill:url(#SVGID_50_);} .st157{fill:url(#SVGID_51_);} .st158{fill:url(#SVGID_52_);} .st159{fill:url(#SVGID_53_);} .st160{fill:url(#SVGID_54_);} .st161{fill:url(#SVGID_55_);} .st162{fill:url(#SVGID_56_);} .st163{fill:url(#SVGID_57_);} .st164{fill:url(#SVGID_58_);} .st165{fill:url(#SVGID_59_);} .st166{fill:url(#SVGID_60_);} .st167{fill:url(#SVGID_61_);} .st168{fill:url(#SVGID_62_);} .st169{fill:url(#SVGID_63_);} .st170{fill:url(#SVGID_64_);} .st171{fill:url(#SVGID_65_);} .st172{fill:url(#SVGID_66_);} .st173{fill:url(#SVGID_67_);} .st174{fill:url(#SVGID_68_);} .st175{fill:url(#SVGID_69_);} .st176{fill:url(#SVGID_70_);} .st177{fill:url(#SVGID_71_);} .st178{fill:url(#SVGID_72_);} .st179{fill:url(#SVGID_73_);} .st180{fill:url(#SVGID_74_);} .st181{fill:url(#SVGID_75_);} .st182{fill:url(#SVGID_76_);} .st183{fill:url(#SVGID_77_);} .st184{fill:url(#SVGID_78_);} .st185{fill:url(#SVGID_79_);} .st186{fill:url(#SVGID_80_);} .st187{fill:url(#SVGID_81_);} .st188{fill:url(#SVGID_82_);} .st189{fill:url(#SVGID_83_);} .st190{fill:url(#SVGID_84_);} .st191{fill:url(#SVGID_85_);} .st192{fill:url(#SVGID_86_);} .st193{fill:url(#SVGID_87_);} .st194{fill:url(#SVGID_88_);} .st195{fill:url(#SVGID_89_);} .st196{fill:url(#SVGID_90_);} .st197{fill:url(#SVGID_91_);} .st198{fill:url(#SVGID_92_);} .st199{fill:url(#SVGID_93_);} .st200{fill:url(#SVGID_94_);} .st201{fill:url(#SVGID_95_);} .st202{fill:url(#SVGID_96_);} .st203{fill:url(#SVGID_97_);} .st204{fill:url(#SVGID_98_);} .st205{fill:url(#SVGID_99_);} .st206{fill:url(#SVGID_100_);} .st207{fill:url(#SVGID_101_);} .st208{fill:url(#SVGID_102_);} .st209{fill:url(#SVGID_103_);} .st210{fill:url(#SVGID_104_);} .st211{fill:url(#SVGID_105_);} .st212{fill:url(#SVGID_106_);} .st213{fill:url(#SVGID_107_);} .st214{fill:url(#SVGID_108_);} .st215{fill:url(#SVGID_109_);} .st216{fill:url(#SVGID_110_);} .st217{fill:url(#SVGID_111_);} .st218{fill:url(#SVGID_112_);} .st219{fill:url(#SVGID_113_);} .st220{fill:url(#SVGID_114_);} .st221{fill:url(#SVGID_115_);} .st222{fill:url(#SVGID_116_);} .st223{fill:url(#SVGID_117_);} .st224{fill:url(#SVGID_118_);} .st225{fill:url(#SVGID_119_);} .st226{fill:url(#SVGID_120_);} .st227{fill:url(#SVGID_121_);} .st228{fill:url(#SVGID_122_);} .st229{fill:url(#SVGID_123_);} .st230{fill:url(#SVGID_124_);} .st231{fill:url(#SVGID_125_);} .st232{fill:url(#SVGID_126_);} .st233{fill:url(#SVGID_127_);} .st234{fill:url(#SVGID_128_);} .st235{fill:url(#SVGID_129_);} .st236{fill:url(#SVGID_130_);} .st237{fill:url(#SVGID_131_);} .st238{fill:url(#SVGID_132_);} .st239{fill:url(#SVGID_133_);} .st240{fill:url(#SVGID_134_);} .st241{fill:url(#SVGID_135_);} .st242{fill:url(#SVGID_136_);} .st243{fill:url(#SVGID_137_);} .st244{fill:url(#SVGID_138_);} .st245{fill:url(#SVGID_139_);} .st246{fill:url(#SVGID_140_);} .st247{fill:url(#SVGID_141_);} .st248{fill:url(#SVGID_142_);} .st249{fill:url(#SVGID_143_);} .st250{fill:url(#SVGID_144_);} .st251{fill:url(#SVGID_145_);} .st252{fill:url(#SVGID_146_);} .st253{fill:url(#SVGID_147_);} .st254{fill:url(#SVGID_148_);} .st255{fill:url(#SVGID_149_);} .st256{fill:url(#SVGID_150_);} .st257{fill:url(#SVGID_151_);} .st258{fill:url(#SVGID_152_);} .st259{fill:url(#SVGID_153_);} .st260{fill:url(#SVGID_154_);} .st261{fill:url(#SVGID_155_);} .st262{fill:url(#SVGID_156_);} .st263{fill:url(#SVGID_157_);} .st264{fill:url(#SVGID_158_);} .st265{fill:url(#SVGID_159_);} .st266{fill:url(#SVGID_160_);} .st267{fill:url(#SVGID_161_);} .st268{fill:url(#SVGID_162_);} .st269{fill:url(#SVGID_163_);} .st270{fill:url(#SVGID_164_);} .st271{fill:url(#SVGID_165_);} .st272{fill:url(#SVGID_166_);} .st273{fill:url(#SVGID_167_);} .st274{fill:url(#SVGID_168_);} .st275{fill:url(#SVGID_169_);} .st276{fill:url(#SVGID_170_);} .st277{fill:url(#SVGID_171_);} .st278{fill:url(#SVGID_172_);} .st279{fill:url(#SVGID_173_);} .st280{fill:url(#SVGID_174_);} .st281{fill:url(#SVGID_175_);} .st282{fill:url(#SVGID_176_);} .st283{fill:url(#SVGID_177_);} .st284{fill:url(#SVGID_178_);} .st285{fill:url(#SVGID_179_);} .st286{fill:url(#SVGID_180_);} .st287{fill:url(#SVGID_181_);} .st288{fill:url(#SVGID_182_);} .st289{fill:url(#SVGID_183_);} .st290{fill:url(#SVGID_184_);} .st291{fill:url(#SVGID_185_);} .st292{fill:url(#SVGID_186_);} .st293{fill:url(#SVGID_187_);} .st294{fill:url(#SVGID_188_);} .st295{fill:url(#SVGID_189_);} .st296{fill:url(#SVGID_190_);} .st297{fill:url(#SVGID_191_);} .st298{fill:url(#SVGID_192_);} .st299{fill:url(#SVGID_193_);} .st300{fill:url(#SVGID_194_);} .st301{fill:url(#SVGID_195_);} .st302{fill:url(#SVGID_196_);} .st303{fill:url(#SVGID_197_);} .st304{fill:url(#SVGID_198_);} .st305{fill:url(#SVGID_199_);} .st306{fill:url(#SVGID_200_);} .st307{fill:url(#SVGID_201_);} .st308{fill:url(#SVGID_202_);} .st309{fill:url(#SVGID_203_);} .st310{fill:url(#SVGID_204_);} .st311{fill:url(#SVGID_205_);} .st312{fill:url(#SVGID_206_);} .st313{fill:url(#SVGID_207_);} .st314{fill:url(#SVGID_208_);} .st315{fill:url(#SVGID_209_);} .st316{fill:url(#SVGID_210_);} .st317{fill:url(#SVGID_211_);} .st318{fill:url(#SVGID_212_);} .st319{fill:url(#SVGID_213_);} .st320{fill:url(#SVGID_214_);} .st321{fill:url(#SVGID_215_);} .st322{fill:url(#SVGID_216_);} .st323{fill:url(#SVGID_217_);} .st324{fill:url(#SVGID_218_);} .st325{fill:url(#SVGID_219_);} .st326{fill:url(#SVGID_220_);} .st327{fill:url(#SVGID_221_);} .st328{fill:url(#SVGID_222_);} .st329{fill:url(#SVGID_223_);} .st330{fill:url(#SVGID_224_);} .st331{fill:url(#SVGID_225_);} .st332{fill:url(#SVGID_226_);} .st333{fill:url(#SVGID_227_);} .st334{fill:url(#SVGID_228_);} .st335{fill:url(#SVGID_229_);} .st336{fill:url(#SVGID_230_);} .st337{fill:url(#SVGID_231_);} .st338{fill:url(#SVGID_232_);} .st339{fill:url(#SVGID_233_);} .st340{fill:url(#SVGID_234_);} .st341{fill:url(#SVGID_235_);} .st342{fill:url(#SVGID_236_);} .st343{fill:url(#SVGID_237_);} .st344{fill:url(#SVGID_238_);} .st345{fill:url(#SVGID_239_);} .st346{fill:url(#SVGID_240_);} .st347{fill:url(#SVGID_241_);} .st348{fill:url(#SVGID_242_);} .st349{fill:url(#SVGID_243_);} .st350{fill:url(#SVGID_244_);} .st351{fill:url(#SVGID_245_);} .st352{fill:url(#SVGID_246_);} .st353{fill:url(#SVGID_247_);} .st354{fill:url(#SVGID_248_);} .st355{fill:url(#SVGID_249_);} .st356{fill:url(#SVGID_250_);} .st357{fill:url(#SVGID_251_);} .st358{fill:url(#SVGID_252_);} .st359{fill:url(#SVGID_253_);} .st360{fill:url(#SVGID_254_);} .st361{fill:url(#SVGID_255_);} .st362{fill:url(#SVGID_256_);} .st363{fill:url(#SVGID_257_);} .st364{fill:url(#SVGID_258_);} .st365{fill:url(#SVGID_259_);} .st366{fill:url(#SVGID_260_);} .st367{fill:url(#SVGID_261_);} .st368{fill:url(#SVGID_262_);} .st369{fill:url(#SVGID_263_);} .st370{fill:url(#SVGID_264_);} .st371{fill:#001689;} .st372{fill:#0055A3;} .st373{fill:#F7981D;} .st374{fill:#231F20;} .st375{fill:#ED1B2E;} .st376{fill-rule:evenodd;clip-rule:evenodd;fill:#004A8E;} .st377{fill-rule:evenodd;clip-rule:evenodd;fill:#507178;} .st378{fill:#507178;} .st379{fill:#EE403D;} .st380{clip-path:url(#SVGID_266_);} .st381{fill:#AE1329;} .st382{fill:#B3B5B7;} .st383{fill:#FFFFFF;} .st384{fill:#656263;} .st385{fill:#8C2B99;} .st386{fill:#258CD4;} .st387{fill:#EF2D38;} .st388{fill:#DC35A3;} .st389{fill:#43B2E9;} .st390{fill:#58BBE3;} .st391{fill:#F68712;} .st392{fill:#FBC707;} .st393{fill:#4DBD38;} .st394{fill:#80CC28;} .st395{fill:#00A990;} .st396{fill:#ED1181;} .st397{clip-path:url(#SVGID_268_);} .st398{clip-path:url(#SVGID_270_);} .st399{clip-path:url(#SVGID_272_);} .st400{clip-path:url(#SVGID_274_);} .st401{fill:#156FDB;} .st402{fill:#E92327;} .st403{fill:#808184;} .st404{fill:#EC1944;} .st405{fill:none;} .st406{fill:#00B4EF;} .st407{fill:url(#SVGID_275_);} .st408{fill:url(#SVGID_276_);} .st409{fill:url(#SVGID_277_);} .st410{fill:#FFC745;} .st411{fill:#FFCE51;} .st412{fill:#332D37;} .st413{clip-path:url(#SVGID_280_);} .st414{clip-path:url(#SVGID_281_);} .st415{clip-path:url(#SVGID_286_);} .st416{clip-path:url(#SVGID_287_);} .st417{clip-path:url(#SVGID_292_);} .st418{clip-path:url(#SVGID_293_);} .st419{clip-path:url(#SVGID_298_);} .st420{clip-path:url(#SVGID_299_);} .st421{fill:#F37B20;} .st422{fill:#E25A5C;} .st423{fill:#1CABE2;} .st424{fill:#1BA9E1;} </style> <g> <g> <g> </g> <path class="st423" d="M182.52,0.94V29.2l43.83,30.6c1.75,1.22,1.75,3.82,0,5.04l-43.83,30.6v28.27l83.54-58.32 c2.14-1.49,2.14-4.65,0-6.15L182.52,0.94z"></path> <path class="st423" d="M157.91,21.49v21.71l23.81,16.62c1.75,1.22,1.75,3.81,0,5.03l-23.81,16.62v21.7L212,65.4 c2.14-1.49,2.14-4.65,0-6.14L157.91,21.49z"></path> <path class="st423" d="M138.99,39.45v13.67l9.59,6.69c1.75,1.22,1.75,3.82,0,5.04l-9.59,6.69v13.67l28.39-19.82 c2.13-1.48,2.13-4.63,0-6.11L138.99,39.45z"></path> </g> <g> <g> <path class="st423" d="M50.47,197.37c0,2.59-0.52,4.86-1.55,6.82c-1.04,1.96-2.46,3.6-4.27,4.92c-1.81,1.32-3.91,2.33-6.3,3.02 c-2.39,0.69-4.93,1.04-7.64,1.04H2.5v-61.27h31.4c2.13,0,4.06,0.46,5.78,1.38c1.73,0.92,3.19,2.12,4.4,3.58 c1.21,1.47,2.14,3.14,2.8,5.01c0.66,1.87,0.99,3.75,0.99,5.65c0,2.99-0.75,5.8-2.24,8.41c-1.5,2.62-3.68,4.56-6.56,5.83 c3.51,1.03,6.29,2.89,8.33,5.57C49.45,189.99,50.47,193.35,50.47,197.37z M14.41,162.08v15.45H28.9c2.01,0,3.72-0.69,5.14-2.07 c1.41-1.38,2.11-3.28,2.11-5.7c0-2.36-0.65-4.23-1.94-5.61c-1.29-1.38-2.89-2.07-4.79-2.07H14.41z M38.48,195.13 c0-1.09-0.19-2.14-0.56-3.15c-0.38-1.01-0.88-1.88-1.51-2.63c-0.63-0.75-1.38-1.34-2.24-1.77c-0.86-0.43-1.81-0.65-2.85-0.65 H14.41v16.14h16.3c1.09,0,2.11-0.2,3.06-0.61c0.95-0.4,1.77-0.96,2.46-1.68c0.69-0.72,1.24-1.57,1.64-2.55 C38.27,197.26,38.48,196.22,38.48,195.13z"></path> <path class="st423" d="M59.51,213.16v-61.18h11.91v61.18H59.51z"></path> <path class="st423" d="M127.23,162.34h-18.11v50.83H97.21v-50.83h-18.2v-10.44h48.22V162.34z"></path> <path class="st423" d="M184.88,213.16V172.6l-15.79,30.21h-6.47l-15.79-30.21v40.56h-11.91v-61.27h12.77l18.12,34.87l18.3-34.87 h12.69v61.27H184.88z"></path> <path class="st423" d="M234.12,213.6c-4.31,0-8.26-0.88-11.82-2.63c-3.57-1.76-6.63-4.09-9.19-6.99 c-2.56-2.9-4.53-6.23-5.91-9.97c-1.38-3.74-2.07-7.57-2.07-11.48c0-4.08,0.73-7.99,2.2-11.74c1.47-3.74,3.51-7.05,6.13-9.92 c2.62-2.88,5.71-5.16,9.28-6.86c3.56-1.7,7.45-2.54,11.65-2.54c4.32,0,8.26,0.9,11.82,2.72c3.57,1.81,6.62,4.19,9.15,7.12 c2.53,2.94,4.49,6.27,5.87,10.01c1.38,3.74,2.07,7.54,2.07,11.39c0,4.09-0.73,7.98-2.2,11.69c-1.47,3.71-3.5,6.99-6.08,9.84 c-2.59,2.85-5.67,5.12-9.23,6.82C242.21,212.75,238.32,213.6,234.12,213.6z M217.12,182.53c0,2.65,0.39,5.21,1.17,7.68 c0.78,2.47,1.9,4.66,3.37,6.56c1.47,1.9,3.26,3.42,5.39,4.57c2.13,1.15,4.55,1.73,7.25,1.73c2.76,0,5.19-0.59,7.29-1.77 c2.1-1.18,3.87-2.75,5.31-4.7c1.44-1.95,2.53-4.16,3.28-6.6c0.75-2.44,1.12-4.93,1.12-7.46c0-2.64-0.4-5.2-1.21-7.68 c-0.81-2.47-1.94-4.66-3.41-6.56s-3.25-3.41-5.35-4.53c-2.1-1.12-4.47-1.68-7.12-1.68c-2.76,0-5.19,0.59-7.29,1.77 s-3.88,2.73-5.35,4.66c-1.47,1.93-2.58,4.11-3.32,6.56C217.5,177.51,217.12,180,217.12,182.53z"></path> <path class="st423" d="M321.26,213.16v-61.18h11.91v61.18H321.26z"></path> <path class="st423" d="M356.46,173.9v39.27h-11.91v-61.27h9.23l31.93,40.21v-40.13h11.91v61.18h-9.67L356.46,173.9z"></path> <path class="st423" d="M303.18,151.98l-13.95,39.43l-14.1-39.43h-12.27l23,58.54c1.26,3.22,5.83,3.2,7.07-0.02l22.54-58.52 H303.18z"></path> </g> <g> <path class="st424" d="M7.52,240.14c-2.03,0-3.74-0.75-5.15-2.25l1.14-1.35c0.5,0.63,1.12,1.1,1.84,1.43s1.45,0.49,2.19,0.49 c0.9,0,1.62-0.2,2.15-0.59c0.54-0.39,0.81-0.94,0.81-1.63c0-0.38-0.07-0.71-0.19-0.98c-0.13-0.27-0.35-0.51-0.66-0.72 c-0.31-0.21-0.62-0.38-0.92-0.5c-0.3-0.12-0.72-0.29-1.26-0.51c-0.09-0.04-0.16-0.07-0.21-0.08c-0.53-0.21-0.96-0.39-1.3-0.52 c-0.34-0.13-0.72-0.33-1.15-0.59c-0.43-0.26-0.76-0.52-1-0.79c-0.24-0.27-0.45-0.6-0.62-1c-0.18-0.4-0.27-0.85-0.27-1.34 c0-1.08,0.43-1.98,1.29-2.72c0.86-0.74,1.91-1.11,3.15-1.12c1.63,0,3.17,0.56,4.6,1.69l-1.08,1.39c-1.13-0.95-2.3-1.43-3.51-1.43 c-0.71,0-1.31,0.19-1.82,0.56c-0.5,0.37-0.76,0.89-0.76,1.54c0,0.27,0.05,0.52,0.16,0.75c0.11,0.22,0.23,0.41,0.37,0.55 c0.14,0.14,0.37,0.3,0.71,0.48c0.34,0.18,0.61,0.31,0.81,0.39c0.2,0.08,0.55,0.22,1.03,0.42c1.5,0.57,2.48,1.02,2.96,1.35 c1.02,0.7,1.53,1.69,1.53,2.99c0,1.28-0.47,2.28-1.42,3C9.99,239.78,8.85,240.14,7.52,240.14z"></path> <path class="st424" d="M19.2,240.14c-1.52,0-2.76-0.48-3.72-1.45c-0.95-0.97-1.43-2.18-1.43-3.64s0.48-2.67,1.43-3.65 c0.95-0.97,2.19-1.46,3.72-1.46c1.47,0,2.69,0.48,3.66,1.43c0.97,0.95,1.45,2.18,1.45,3.68c0,1.5-0.48,2.72-1.45,3.67 C21.89,239.67,20.67,240.14,19.2,240.14z M19.2,238.63c0.97,0,1.78-0.34,2.44-1.01c0.66-0.67,0.99-1.53,0.99-2.56 c0-1.05-0.33-1.91-0.98-2.57c-0.65-0.67-1.47-1-2.45-1c-1.02,0-1.86,0.34-2.5,1.03c-0.65,0.69-0.97,1.54-0.97,2.54 s0.32,1.86,0.97,2.54C17.35,238.29,18.18,238.63,19.2,238.63z"></path> <path class="st424" d="M26.9,240.02v-8.52h-1.23v-1.43h1.23v-2c0-1.06,0.24-1.87,0.72-2.41c0.48-0.54,1.17-0.82,2.05-0.82 c0.84,0,1.62,0.21,2.33,0.63l-0.37,1.43c-0.65-0.34-1.23-0.51-1.74-0.51c-0.91,0-1.37,0.61-1.37,1.82v1.86h2.82v1.43h-2.82v8.52 H26.9z"></path> <path class="st424" d="M35.72,240.14c-1.73,0-2.59-1.03-2.59-3.08v-5.55h-1.27v-1.43h1.27v-3.39l1.65-0.18v3.57h3.31v1.43h-3.31 v5.31c0,0.61,0.09,1.06,0.28,1.35c0.18,0.29,0.5,0.43,0.95,0.43c0.52,0,1.08-0.17,1.67-0.51l0.45,1.45 C37.4,239.94,36.6,240.14,35.72,240.14z"></path> <path class="st424" d="M51.88,230.07h1.67l-3.45,9.95h-1.55l-2.25-7.25l-0.07-0.02l-2.26,7.27H42.5l-3.45-9.95h1.67l2.54,7.43 l0.04,0l2.27-7.43H47l2.31,7.43h0.03L51.88,230.07z"></path> <path class="st424" d="M62.48,230.07h1.65v9.95h-1.59v-1.57h-0.02c-0.84,1.13-2,1.7-3.47,1.7c-1.4,0-2.57-0.46-3.49-1.39 c-0.93-0.93-1.39-2.14-1.39-3.64c0-1.47,0.46-2.7,1.38-3.69c0.92-0.99,2.08-1.48,3.48-1.48c1.42,0,2.56,0.54,3.43,1.61h0.02 V230.07z M59.19,238.63c0.93,0,1.72-0.33,2.37-0.99c0.65-0.66,0.98-1.5,0.98-2.52s-0.32-1.88-0.95-2.58 c-0.63-0.7-1.43-1.05-2.38-1.05c-0.95,0-1.75,0.34-2.4,1.01c-0.65,0.67-0.97,1.55-0.97,2.62c0,1.02,0.31,1.86,0.93,2.52 C57.39,238.3,58.2,238.63,59.19,238.63z"></path> <path class="st424" d="M71.79,229.95c0.2,0,0.34,0.01,0.41,0.02v1.84c-0.3-0.03-0.52-0.04-0.65-0.04c-0.93,0-1.66,0.32-2.21,0.96 c-0.54,0.64-0.82,1.47-0.82,2.49v4.8h-1.65v-9.95h1.65v1.76h0.02C69.32,230.58,70.4,229.95,71.79,229.95z"></path> <path class="st424" d="M82.29,234.89c0,0.11-0.01,0.25-0.02,0.43l-0.02,0.25h-7.66c0.11,0.93,0.47,1.67,1.07,2.23 c0.61,0.56,1.36,0.84,2.26,0.84c1.16,0,2.09-0.45,2.8-1.35l1.16,1c-0.97,1.24-2.31,1.86-4.02,1.86c-1.43,0-2.61-0.47-3.54-1.42 c-0.93-0.95-1.4-2.17-1.4-3.67c0-1.48,0.45-2.71,1.36-3.67c0.91-0.96,2.04-1.44,3.4-1.44c1.38,0,2.49,0.46,3.34,1.39 C81.86,232.27,82.29,233.45,82.29,234.89z M79.7,232.22c-0.5-0.49-1.15-0.74-1.94-0.74c-0.79,0-1.47,0.24-2.03,0.72 c-0.57,0.48-0.92,1.15-1.07,1.99h6C80.52,233.37,80.2,232.71,79.7,232.22z"></path> <path class="st424" d="M92.62,240.14c-1.73,0-2.59-1.03-2.59-3.08v-5.55h-1.27v-1.43h1.27v-3.39l1.65-0.18v3.57h3.31v1.43h-3.31 v5.31c0,0.61,0.09,1.06,0.28,1.35c0.18,0.29,0.5,0.43,0.95,0.43c0.52,0,1.08-0.17,1.67-0.51l0.45,1.45 C94.3,239.94,93.5,240.14,92.62,240.14z"></path> <path class="st424" d="M101.02,240.14c-1.52,0-2.76-0.48-3.72-1.45c-0.95-0.97-1.43-2.18-1.43-3.64s0.48-2.67,1.43-3.65 c0.95-0.97,2.19-1.46,3.72-1.46c1.47,0,2.69,0.48,3.66,1.43c0.97,0.95,1.45,2.18,1.45,3.68c0,1.5-0.48,2.72-1.45,3.67 C103.71,239.67,102.49,240.14,101.02,240.14z M101.02,238.63c0.97,0,1.78-0.34,2.44-1.01c0.66-0.67,0.99-1.53,0.99-2.56 c0-1.05-0.33-1.91-0.98-2.57c-0.65-0.67-1.47-1-2.45-1c-1.02,0-1.86,0.34-2.5,1.03c-0.65,0.69-0.97,1.54-0.97,2.54 s0.32,1.86,0.97,2.54C99.16,238.29,100,238.63,101.02,238.63z"></path> <path class="st424" d="M118.15,240.14c-2.03,0-3.74-0.75-5.15-2.25l1.14-1.35c0.5,0.63,1.12,1.1,1.84,1.43 c0.72,0.33,1.45,0.49,2.19,0.49c0.9,0,1.62-0.2,2.16-0.59c0.54-0.39,0.81-0.94,0.81-1.63c0-0.38-0.06-0.71-0.19-0.98 c-0.13-0.27-0.35-0.51-0.66-0.72c-0.31-0.21-0.62-0.38-0.92-0.5c-0.3-0.12-0.72-0.29-1.26-0.51c-0.09-0.04-0.16-0.07-0.21-0.08 c-0.53-0.21-0.96-0.39-1.3-0.52c-0.34-0.13-0.72-0.33-1.15-0.59c-0.43-0.26-0.76-0.52-1-0.79c-0.24-0.27-0.45-0.6-0.62-1 c-0.18-0.4-0.27-0.85-0.27-1.34c0-1.08,0.43-1.98,1.29-2.72c0.86-0.74,1.91-1.11,3.15-1.12c1.63,0,3.17,0.56,4.59,1.69 l-1.08,1.39c-1.13-0.95-2.3-1.43-3.51-1.43c-0.71,0-1.31,0.19-1.82,0.56c-0.5,0.37-0.76,0.89-0.76,1.54 c0,0.27,0.05,0.52,0.16,0.75c0.11,0.22,0.23,0.41,0.37,0.55c0.14,0.14,0.37,0.3,0.71,0.48c0.34,0.18,0.61,0.31,0.81,0.39 c0.2,0.08,0.55,0.22,1.03,0.42c1.5,0.57,2.48,1.02,2.96,1.35c1.02,0.7,1.53,1.69,1.53,2.99c0,1.28-0.47,2.28-1.42,3 C120.63,239.78,119.49,240.14,118.15,240.14z"></path> <path class="st424" d="M129.84,240.14c-1.52,0-2.76-0.48-3.72-1.45c-0.95-0.97-1.43-2.18-1.43-3.64s0.48-2.67,1.43-3.65 c0.95-0.97,2.19-1.46,3.72-1.46c1.47,0,2.69,0.48,3.66,1.43c0.97,0.95,1.45,2.18,1.45,3.68c0,1.5-0.48,2.72-1.45,3.67 C132.52,239.67,131.31,240.14,129.84,240.14z M129.84,238.63c0.97,0,1.78-0.34,2.44-1.01c0.66-0.67,0.99-1.53,0.99-2.56 c0-1.05-0.33-1.91-0.98-2.57c-0.65-0.67-1.47-1-2.45-1c-1.02,0-1.86,0.34-2.5,1.03c-0.65,0.69-0.97,1.54-0.97,2.54 s0.32,1.86,0.97,2.54C127.98,238.29,128.81,238.63,129.84,238.63z"></path> <path class="st424" d="M137.33,240.02v-15.03h1.65v15.03H137.33z"></path> <path class="st424" d="M148.81,230.07h1.8l-4.04,9.95h-1.59l-4.06-9.95h1.78l3.07,7.84h0.06L148.81,230.07z"></path> <path class="st424" d="M160.57,234.89c0,0.11-0.01,0.25-0.02,0.43l-0.02,0.25h-7.66c0.11,0.93,0.47,1.67,1.07,2.23 c0.61,0.56,1.36,0.84,2.26,0.84c1.16,0,2.09-0.45,2.8-1.35l1.16,1c-0.97,1.24-2.31,1.86-4.02,1.86c-1.43,0-2.61-0.47-3.54-1.42 c-0.93-0.95-1.4-2.17-1.4-3.67c0-1.48,0.45-2.71,1.36-3.67c0.91-0.96,2.04-1.44,3.4-1.44c1.38,0,2.49,0.46,3.34,1.39 C160.15,232.27,160.57,233.45,160.57,234.89z M157.98,232.22c-0.5-0.49-1.15-0.74-1.94-0.74c-0.79,0-1.47,0.24-2.03,0.72 c-0.57,0.48-0.92,1.15-1.07,1.99h6C158.8,233.37,158.48,232.71,157.98,232.22z"></path> <path class="st424" d="M174.95,240.12c-2.06,0-3.78-0.65-5.16-1.94c-1.38-1.29-2.07-3.08-2.07-5.35c0-2.15,0.64-3.93,1.93-5.34 c1.29-1.41,3.05-2.11,5.3-2.11c2.29,0,4.17,0.93,5.66,2.78l-1.33,1.1c-1.16-1.46-2.6-2.19-4.33-2.19c-1.63,0-2.94,0.53-3.91,1.6 c-0.97,1.07-1.46,2.45-1.46,4.16c0,1.7,0.5,3.06,1.51,4.07c1.01,1.02,2.29,1.52,3.86,1.52c1.73,0,3.17-0.72,4.33-2.16l1.33,1.12 C179.14,239.21,177.25,240.12,174.95,240.12z"></path> <path class="st424" d="M187.06,240.14c-1.52,0-2.76-0.48-3.72-1.45c-0.95-0.97-1.43-2.18-1.43-3.64s0.48-2.67,1.43-3.65 c0.95-0.97,2.19-1.46,3.72-1.46c1.47,0,2.69,0.48,3.66,1.43c0.97,0.95,1.45,2.18,1.45,3.68c0,1.5-0.48,2.72-1.45,3.67 C189.75,239.67,188.53,240.14,187.06,240.14z M187.06,238.63c0.97,0,1.78-0.34,2.44-1.01c0.66-0.67,0.99-1.53,0.99-2.56 c0-1.05-0.33-1.91-0.98-2.57c-0.65-0.67-1.47-1-2.45-1c-1.02,0-1.86,0.34-2.5,1.03c-0.65,0.69-0.97,1.54-0.97,2.54 s0.32,1.86,0.97,2.54C185.21,238.29,186.04,238.63,187.06,238.63z"></path> <path class="st424" d="M206.24,229.95c2.33,0,3.49,1.42,3.49,4.25v5.82h-1.65v-5.37c0-1.1-0.19-1.91-0.56-2.41 c-0.37-0.5-0.96-0.76-1.77-0.76c-0.79,0-1.45,0.33-1.98,0.98c-0.53,0.65-0.8,1.52-0.8,2.61v4.94h-1.65v-5.39 c0-2.1-0.79-3.15-2.37-3.15c-0.83,0-1.52,0.33-2.06,0.98s-0.82,1.52-0.82,2.61v4.94h-1.63v-9.95h1.63v1.72h0.02 c0.41-0.59,0.9-1.04,1.49-1.36c0.59-0.32,1.2-0.48,1.86-0.48c1.59,0,2.65,0.65,3.17,1.96h0.02 C203.44,230.61,204.65,229.95,206.24,229.95z"></path> <path class="st424" d="M217.45,229.95c1.4,0,2.56,0.49,3.48,1.48c0.92,0.99,1.38,2.22,1.38,3.69c0,1.5-0.46,2.71-1.39,3.64 c-0.93,0.93-2.08,1.39-3.47,1.39c-1.42,0-2.55-0.53-3.39-1.59h-0.04v5.51h-1.63v-13.99h1.65v1.47h0.02 C214.92,230.48,216.05,229.95,217.45,229.95z M217.29,238.63c0.99,0,1.8-0.33,2.42-0.99s0.93-1.5,0.93-2.52 c0-1.09-0.32-1.97-0.96-2.63c-0.64-0.67-1.44-1-2.41-1c-0.94,0-1.72,0.35-2.35,1.05c-0.63,0.7-0.94,1.56-0.94,2.58 s0.33,1.86,0.98,2.52S216.39,238.63,217.29,238.63z"></path> <path class="st424" d="M224.68,240.02v-15.03h1.65v15.03H224.68z"></path> <path class="st424" d="M238.1,234.89c0,0.11-0.01,0.25-0.02,0.43l-0.02,0.25h-7.66c0.11,0.93,0.47,1.67,1.07,2.23 c0.61,0.56,1.36,0.84,2.26,0.84c1.16,0,2.09-0.45,2.8-1.35l1.16,1c-0.97,1.24-2.31,1.86-4.02,1.86c-1.43,0-2.61-0.47-3.54-1.42 c-0.93-0.95-1.4-2.17-1.4-3.67c0-1.48,0.45-2.71,1.36-3.67c0.91-0.96,2.04-1.44,3.4-1.44c1.38,0,2.49,0.46,3.34,1.39 C237.67,232.27,238.1,233.45,238.1,234.89z M235.51,232.22c-0.5-0.49-1.15-0.74-1.94-0.74c-0.79,0-1.47,0.24-2.03,0.72 c-0.57,0.48-0.92,1.15-1.07,1.99h6C236.33,233.37,236.01,232.71,235.51,232.22z"></path> <path class="st424" d="M246.23,240.02l-2.67-3.64l-0.09-0.01l-2.66,3.65h-1.88l3.62-5.01l-3.62-4.94h1.94l2.63,3.62l0,0.01 l2.62-3.62h1.94l-3.6,4.94l3.64,5.01H246.23z"></path> <path class="st424" d="M265,225.52h1.92l-5.47,14.5h-1.59l-5.47-14.5h1.92l4.32,11.95h0.04L265,225.52z"></path> <path class="st424" d="M269.55,228.24c-0.34,0-0.62-0.11-0.85-0.34c-0.23-0.22-0.34-0.5-0.34-0.83c0-0.33,0.11-0.6,0.34-0.83 c0.22-0.22,0.51-0.34,0.85-0.34c0.33,0,0.61,0.12,0.84,0.35c0.23,0.23,0.35,0.5,0.35,0.82c0,0.33-0.12,0.6-0.35,0.83 C270.16,228.12,269.88,228.24,269.55,228.24z M268.72,240.02v-9.95h1.65v9.95H268.72z"></path> <path class="st424" d="M281.03,224.99h1.65v15.03h-1.57v-1.57h-0.04c-0.84,1.13-1.99,1.7-3.43,1.7c-1.4,0-2.57-0.46-3.49-1.39 c-0.93-0.93-1.39-2.14-1.39-3.64c0-1.47,0.46-2.7,1.38-3.69c0.92-0.99,2.08-1.48,3.48-1.48c1.42,0,2.55,0.54,3.39,1.61h0.02 V224.99z M277.78,238.63c0.9,0,1.67-0.33,2.33-0.99c0.65-0.66,0.98-1.5,0.98-2.52s-0.31-1.88-0.94-2.58 c-0.63-0.7-1.41-1.05-2.35-1.05c-0.95,0-1.75,0.34-2.4,1.01c-0.65,0.67-0.97,1.55-0.97,2.62c0,1.02,0.31,1.86,0.93,2.52 S276.79,238.63,277.78,238.63z"></path> <path class="st424" d="M294.31,234.89c0,0.11-0.01,0.25-0.02,0.43l-0.02,0.25h-7.66c0.11,0.93,0.47,1.67,1.07,2.23 c0.61,0.56,1.36,0.84,2.26,0.84c1.16,0,2.09-0.45,2.8-1.35l1.16,1c-0.97,1.24-2.31,1.86-4.02,1.86c-1.43,0-2.61-0.47-3.54-1.42 c-0.93-0.95-1.4-2.17-1.4-3.67c0-1.48,0.45-2.71,1.36-3.67c0.91-0.96,2.04-1.44,3.4-1.44c1.38,0,2.49,0.46,3.34,1.39 C293.88,232.27,294.31,233.45,294.31,234.89z M291.71,232.22c-0.5-0.49-1.15-0.74-1.94-0.74c-0.79,0-1.47,0.24-2.03,0.72 c-0.57,0.48-0.92,1.15-1.07,1.99h6C292.54,233.37,292.22,232.71,291.71,232.22z"></path> <path class="st424" d="M301.05,240.14c-1.52,0-2.76-0.48-3.72-1.45c-0.95-0.97-1.43-2.18-1.43-3.64s0.48-2.67,1.43-3.65 c0.95-0.97,2.19-1.46,3.72-1.46c1.47,0,2.69,0.48,3.66,1.43c0.97,0.95,1.45,2.18,1.45,3.68c0,1.5-0.48,2.72-1.45,3.67 C303.73,239.67,302.52,240.14,301.05,240.14z M301.05,238.63c0.97,0,1.78-0.34,2.44-1.01c0.66-0.67,0.99-1.53,0.99-2.56 c0-1.05-0.33-1.91-0.98-2.57c-0.65-0.67-1.47-1-2.45-1c-1.02,0-1.86,0.34-2.5,1.03c-0.65,0.69-0.97,1.54-0.97,2.54 s0.32,1.86,0.97,2.54C299.19,238.29,300.02,238.63,301.05,238.63z"></path> <path class="st424" d="M313.97,240.02v-14.5h5.09c1.62,0,2.83,0.41,3.61,1.23c0.79,0.82,1.18,1.91,1.18,3.27 c0,1.48-0.46,2.6-1.38,3.35c-0.92,0.75-2.16,1.12-3.73,1.12h-3v5.54H313.97z M315.75,232.85h2.84c1.16,0,2.01-0.26,2.57-0.78 c0.56-0.52,0.84-1.22,0.84-2.1c0-0.91-0.28-1.61-0.83-2.09c-0.55-0.48-1.32-0.72-2.3-0.72h-3.12V232.85z"></path> <path class="st424" d="M330.95,229.95c0.2,0,0.34,0.01,0.41,0.02v1.84c-0.3-0.03-0.52-0.04-0.65-0.04 c-0.93,0-1.66,0.32-2.21,0.96c-0.54,0.64-0.82,1.47-0.82,2.49v4.8h-1.65v-9.95h1.65v1.76h0.02 C328.47,230.58,329.56,229.95,330.95,229.95z"></path> <path class="st424" d="M337.22,240.14c-1.52,0-2.76-0.48-3.72-1.45c-0.95-0.97-1.43-2.18-1.43-3.64s0.48-2.67,1.43-3.65 c0.95-0.97,2.19-1.46,3.72-1.46c1.47,0,2.69,0.48,3.66,1.43c0.97,0.95,1.45,2.18,1.45,3.68c0,1.5-0.48,2.72-1.45,3.67 C339.9,239.67,338.69,240.14,337.22,240.14z M337.22,238.63c0.97,0,1.78-0.34,2.44-1.01c0.66-0.67,0.99-1.53,0.99-2.56 c0-1.05-0.33-1.91-0.98-2.57c-0.65-0.67-1.47-1-2.45-1c-1.02,0-1.86,0.34-2.5,1.03c-0.65,0.69-0.97,1.54-0.97,2.54 s0.32,1.86,0.97,2.54C335.36,238.29,336.19,238.63,337.22,238.63z"></path> <path class="st424" d="M349.69,229.95c1.39,0,2.55,0.49,3.47,1.48c0.93,0.99,1.39,2.22,1.39,3.69c0,1.5-0.47,2.71-1.4,3.64 c-0.93,0.93-2.09,1.39-3.48,1.39c-1.47,0-2.63-0.56-3.47-1.7h-0.04v1.57h-1.57v-15.03h1.65v6.58h0.02 C347.13,230.49,348.28,229.95,349.69,229.95z M349.51,238.63c0.99,0,1.8-0.33,2.42-0.99s0.93-1.5,0.93-2.52 c0-1.09-0.32-1.97-0.96-2.63c-0.64-0.67-1.44-1-2.41-1c-0.94,0-1.73,0.35-2.36,1.05c-0.63,0.7-0.95,1.56-0.95,2.58 s0.33,1.86,0.98,2.52C347.81,238.3,348.6,238.63,349.51,238.63z"></path> <path class="st424" d="M356.92,240.02v-15.03h1.65v15.03H356.92z"></path> <path class="st424" d="M370.34,234.89c0,0.11-0.01,0.25-0.02,0.43l-0.02,0.25h-7.66c0.11,0.93,0.47,1.67,1.07,2.23 c0.61,0.56,1.36,0.84,2.26,0.84c1.16,0,2.09-0.45,2.8-1.35l1.16,1c-0.97,1.24-2.31,1.86-4.02,1.86c-1.43,0-2.61-0.47-3.54-1.42 c-0.93-0.95-1.4-2.17-1.4-3.67c0-1.48,0.45-2.71,1.36-3.67c0.91-0.96,2.04-1.44,3.4-1.44c1.38,0,2.49,0.46,3.34,1.39 C369.92,232.27,370.34,233.45,370.34,234.89z M367.75,232.22c-0.5-0.49-1.15-0.74-1.94-0.74c-0.79,0-1.47,0.24-2.03,0.72 c-0.57,0.48-0.92,1.15-1.07,1.99h6C368.57,233.37,368.25,232.71,367.75,232.22z"></path> <path class="st424" d="M384.37,229.95c2.33,0,3.49,1.42,3.49,4.25v5.82h-1.65v-5.37c0-1.1-0.19-1.91-0.56-2.41 c-0.37-0.5-0.96-0.76-1.77-0.76c-0.79,0-1.45,0.33-1.98,0.98c-0.53,0.65-0.8,1.52-0.8,2.61v4.94h-1.65v-5.39 c0-2.1-0.79-3.15-2.37-3.15c-0.83,0-1.52,0.33-2.06,0.98s-0.82,1.52-0.82,2.61v4.94h-1.63v-9.95h1.63v1.72h0.02 c0.41-0.59,0.9-1.04,1.49-1.36c0.59-0.32,1.2-0.48,1.86-0.48c1.59,0,2.65,0.65,3.17,1.96h0.02 C381.57,230.61,382.78,229.95,384.37,229.95z"></path> <path class="st424" d="M393.54,240.14c-1.54,0-2.84-0.48-3.9-1.43l0.86-1.25c0.86,0.79,1.87,1.18,3.04,1.18 c0.57,0,1.03-0.13,1.37-0.39c0.34-0.26,0.51-0.57,0.51-0.94c0-0.38-0.17-0.67-0.5-0.87c-0.33-0.2-0.92-0.44-1.75-0.72 c-0.05-0.02-0.09-0.03-0.12-0.05c-0.97-0.34-1.71-0.73-2.22-1.16c-0.51-0.44-0.77-1.07-0.77-1.9c0-0.76,0.31-1.4,0.93-1.91 c0.62-0.51,1.41-0.77,2.36-0.77c1.27,0,2.4,0.41,3.41,1.23l-0.86,1.31c-0.79-0.68-1.67-1.02-2.63-1.02 c-0.39,0-0.75,0.11-1.06,0.33c-0.31,0.22-0.47,0.5-0.47,0.84c0,0.36,0.15,0.65,0.46,0.86c0.31,0.22,0.78,0.45,1.41,0.7 c0.1,0.04,0.3,0.12,0.59,0.24c0.29,0.12,0.48,0.19,0.58,0.23c0.09,0.04,0.26,0.1,0.5,0.2c0.24,0.1,0.4,0.17,0.48,0.22 c0.08,0.05,0.21,0.12,0.38,0.23c0.17,0.11,0.29,0.2,0.35,0.28c0.06,0.08,0.14,0.19,0.25,0.33c0.1,0.13,0.17,0.27,0.21,0.39 c0.04,0.13,0.08,0.28,0.1,0.45s0.04,0.35,0.04,0.54c0,0.82-0.31,1.49-0.92,2.03C395.57,239.87,394.69,240.14,393.54,240.14z"></path> </g> </g> </g> </svg> 