<?xml version="1.0" encoding="UTF-8"?> <!-- Generator: Adobe Illustrator 23.0.3, SVG Export Plug-In . SVG Version: 6.00 Build 0) --> <svg xmlns="http://www.w3.org/2000/svg" xmlns:xlink="http://www.w3.org/1999/xlink" id="Layer_1" x="0px" y="0px" viewBox="0 0 400 245" style="enable-background:new 0 0 400 245;" xml:space="preserve"> <style type="text/css"> .st0{fill:#285AE6;} </style> <g> <path d="M19.21,69.66h-8.06H3.1v16.11h16.11V69.66z M396.9,159.19h-8.06h-8.06v16.11h16.11V159.19z"></path> <path class="st0" d="M19.21,151.53H3.1V93.44h8.06h8.06V151.53z M93.73,92.14c11.96,0,19.1,8.32,19.1,21.44v37.95H96.71v-34.57 c0-6.24-2.73-10.4-8.32-10.4c-4.16,0-7.93,2.6-8.97,7.54v37.43H63.19v-34.57c0-6.24-2.6-10.4-8.19-10.4c-4.16,0-8.06,2.6-9.1,7.54 v37.43H29.79V93.44H45.9v4.81c2.86-3.64,8.19-6.11,14.68-6.11c6.89,0,12.35,3.12,15.59,7.41C79.95,95.39,85.54,92.14,93.73,92.14z M139.3,175.34h-16.11v-81.9h16.11v4.81c2.6-3.12,8.32-6.11,14.55-6.11c16.89,0,26.51,14.03,26.51,30.41 c0,16.37-9.62,30.28-26.51,30.28c-6.24,0-11.96-2.99-14.55-6.11V175.34z M139.3,132.03c1.95,4.03,6.24,6.76,10.92,6.76 c8.71,0,13.9-7.02,13.9-16.24c0-9.36-5.2-16.37-13.9-16.37c-4.81,0-8.97,2.86-10.92,6.76V132.03z M201.99,126.19 c1.3,9.49,8.19,13.39,16.76,13.39c6.37,0,10.92-1.43,16.63-5.07v13.25c-4.81,3.51-11.31,5.07-19.1,5.07 c-17.67,0-29.76-11.44-29.76-29.89c0-18.19,11.44-30.8,27.29-30.8c16.89,0,25.6,11.7,25.6,28.85v5.2H201.99z M202.51,115.66h21.96 c-0.39-6.24-3.9-10.66-10.27-10.66C208.88,105,204.33,108.38,202.51,115.66z M283.3,109.29c-2.21-1.3-5.07-1.95-8.06-1.95 c-5.46,0-9.88,2.86-11.05,8.19v36h-16.11V93.44h16.11v5.72c2.47-4.16,7.28-7.02,12.99-7.02c2.73,0,5.2,0.52,6.11,1.04V109.29z M308.34,151.53l-21.96-58.09h16.89l13.39,38.6l13.13-38.6h16.24l-22.09,58.09H308.34z M380.79,115.27c0-5.59-4.81-9.1-12.99-9.1 c-5.85,0-11.31,1.69-15.85,4.68V96.95c4.16-2.6,11.7-4.81,19.36-4.81c15.98,0,25.6,8.19,25.6,22.35v37.04h-16.11v-3.12 c-1.95,1.95-7.67,4.16-14.03,4.16c-11.7,0-21.44-6.76-21.44-18.84c0-11.05,9.75-18.58,22.48-18.58c5.07,0,10.66,1.69,12.99,3.38 V115.27z M380.79,131.52c-1.43-3.12-5.72-5.07-10.27-5.07c-5.07,0-10.27,2.21-10.27,7.15c0,5.07,5.2,7.15,10.27,7.15 c4.55,0,8.84-1.95,10.27-5.07V131.52z"></path> </g> </svg> 