<?xml version="1.0" encoding="UTF-8"?> <!-- Generator: Adobe Illustrator 23.0.4, SVG Export Plug-In . SVG Version: 6.00 Build 0) --> <svg xmlns="http://www.w3.org/2000/svg" xmlns:xlink="http://www.w3.org/1999/xlink" id="Layer_1" x="0px" y="0px" viewBox="0 0 400 245" style="enable-background:new 0 0 400 245;" xml:space="preserve"> <style type="text/css"> .st0{fill:#231F20;} .st1{fill:#003366;} .st2{fill:#E5E522;} .st3{fill:#82D9D9;} .st4{fill:#2D3078;} .st5{fill:#4FBFAE;} </style> <g> <path class="st4" d="M182.68,24.96c-2.63-2.62-5.94-3.96-9.85-3.96H59.58v13.47c0,3.63,1.34,6.77,3.95,9.31 c2.7,2.69,6.05,4.06,9.95,4.06h36.19v135.48l13.22,0.09c3.91,0,7.22-1.33,9.85-3.96c2.69-2.69,4.06-5.86,4.06-9.41V47.93 l49.94-0.09v-12.5C186.75,31.78,185.38,27.65,182.68,24.96z"></path> <path class="st4" d="M254.58,70.61c-3.91,0-7.22,1.33-9.85,3.95c-2.69,2.69-4.06,5.86-4.06,9.41v54.07 c-4.8,13.26-19.36,19.71-34.99,19.71c-12.93,0-19.21-5.96-19.21-18.23V83.98c0-3.55-1.37-6.72-4.06-9.41 c-2.63-2.62-5.94-3.95-9.85-3.95h-13.2v71.4c0,27.47,14.14,41.4,43.4,41.4c14.4,0,30.13-4.97,37.73-14.8 c-0.57,8.69-1.54,13.17-6.47,19.66c-5.52,7.28-16.28,10.07-27.47,10.07c-10.71,0-21.1-2.11-32.46-6.34 c-1.92-0.46-3.66-0.69-5.15-0.69c-6.18,0-9.58,3.36-9.58,9.47v11.02l0.82,0.49c12.98,7.77,28.11,11.72,46.37,11.72 c38.03,0,61.24-20.59,61.24-61.2V70.61H254.58z"></path> <path class="st4" d="M379.27,133.83c-2.03-5.96-4.41-6.85-7.24-9.54c1.25-1.66,2.9-4.86,5.17-11.53l17.09-42.16h-15.5 c-8.49,0-13.94,3.44-16.18,10.17l-11.67,26.91c-0.87,2.24-3.55,3.37-7.96,3.37h-25.44l0.05-76.89c0-3.55-1.18-6.53-3.88-9.22 c-2.62-2.62-5.94-3.96-9.84-3.96h-13.43l0.03,162.35h13.44c3.9,0,7.26-1.37,9.93-4.04c2.64-2.56,3.98-5.69,3.98-9.32l-0.24-31.77 h30.03c4.25,0,5.39,1.94,5.88,3.41l13.94,32.14c2.12,6.36,7.5,9.59,15.99,9.59h15.44L379.27,133.83z"></path> <path class="st5" d="M73.35,98.8C71.72,80.51,56.48,66.14,37.82,65.9c0-0.01,0-0.01,0-0.02H8.32H7.38H1.16v6.22v1.83v29.52 c0.01,0,0.02,0.01,0.04,0.01c0.73,18.88,15.92,34.05,34.81,34.72c0,0.01,0.01,0.03,0.02,0.04h30.25h1h6.22V132V98.91 C73.45,98.88,73.4,98.84,73.35,98.8z"></path> </g> </svg> 