<svg xmlns="http://www.w3.org/2000/svg" viewBox="0 0 335 54"
version="1.1"><path d="m20.7 23.4c10.9 0 24.2-2.6 24.2-13.1
0-7.5-7.6-10.3-14.6-10.3-10.6 0-30.3 5.9-30.3 27 0 10.6 8 16.6 20.8 16.6 13.5 0
23.3-8.8 26.3-20.5-7.9 13.6-18 17.9-26.2 17.9-10.2 0-14.1-7.6-14.1-14 0-18.6
14.4-24.8 23.5-24.8 6.1 0 9.7 3.9 9.7 8.3 0 11.9-17.2 11.6-25 11.6h-3.8l-1.7
1.7c3.6 0.5 8.6 1.5 13.9 4.2 11.2 5.7 21.7 20.6 35.7 20.6 5.1 0 6.4-1.5
7.3-2.9-6.8 4.4-18.3-3.2-24.5-9-5.1-4.8-9.6-10.3-21.4-13.1"
fill="#e9711c"/><path fill="#666" d="m323.5 6.5c0-0.1 0.1-0.2 0.2-0.2h1.6c0.2 0
0.3 0.1 0.3 0.2l3.4 7.8h0.1l3.3-7.8c0.1-0.1 0.1-0.2 0.3-0.2h1.6c0.1 0 0.2 0.1
0.2 0.2v12.3c0 0.1-0.1 0.2-0.2 0.2h-1.6c-0.1 0-0.2-0.1-0.2-0.2v-7.7h-0.1l-2.6
6c-0.1 0.2-0.2 0.2-0.3 0.2h-1c-0.2 0-0.3-0.1-0.3-0.2l-2.6-6h-0.1v7.7c0 0.1-0.1
0.2-0.2 0.2h-1.6c-0.1 0-0.2-0.1-0.2-0.2v-12.3zm-7.6 12.5c-0.1
0-0.2-0.1-0.2-0.2v-10.4c0-0.1 0-0.1-0.1-0.1h-3.2c-0.1
0-0.2-0.1-0.2-0.2v-1.6c0-0.1 0.1-0.2 0.2-0.2h8.7c0.1 0 0.2 0.1 0.2 0.2v1.6c0
0.1-0.1 0.2-0.2 0.2h-3.2c-0.1 0-0.1 0-0.1 0.1v10.4c0 0.1-0.1 0.2-0.2
0.2h-1.8zm-138.4 24.6c-0.4 0-0.6-0.2-0.8-0.5l-7.3-12.6h-0.1l-7.3 12.6c-0.2
0.4-0.4 0.5-0.8 0.5h-5.7c-0.4 0-0.5-0.3-0.3-0.7l10.8-18.6-1e1 -17.2c-0.2-0.4
0-0.7 0.3-0.7h5.7c0.4 0 0.6 0.2 0.8 0.5l6.5 11.3h0.1l6.5-11.3c0.2-0.4 0.4-0.5
0.8-0.5h5.7c0.4 0 0.5 0.3 0.3 0.7l-1e1 17.2 10.8 18.6c0.2 0.4 0.1 0.7-0.3
0.7h-5.8zm115.2 9.8c-0.3 0-0.5-0.2-0.5-0.5v-34.9c0-0.3 0.2-0.5 0.5-0.5h1.8c0.3
0 0.5 0.2 0.5 0.5v3.2h0.1c1.2-2.5 3.5-4.3 7.7-4.3 4.4 0 7.3 2.1 8.6 6.2 0.6 2.1
0.9 4.4 0.9 7.4 0 2.9-0.3 5.2-0.9 7.3-1.3 4.2-4.1 6.2-8.6 6.2-4.2
0-6.5-1.8-7.7-4.3h-0.1v13c0 0.3-0.2 0.6-0.5 0.5h-1.8zm15.9-16.8c0.5-1.6 0.7-3.8
0.7-6.1 0-2.4-0.2-4.5-0.7-6.2-1-3-3.1-4.6-6.5-4.6-3.2 0-5.5 1.5-6.5 4.6-0.5
1.4-0.7 3.3-0.7 6.2 0 2.8 0.2 4.7 0.7 6.1 1 3.1 3.3 4.6 6.5 4.6 3.3 0 5.5-1.6
6.5-4.6m-24.3 7c-0.3 0-0.5-0.2-0.5-0.5v-3.1h-0.1c-1.3 2.6-3.9 4.2-7.4 4.2-5.6
0-8.7-3.6-8.7-9.9v-16.2c0-0.3 0.2-0.5 0.5-0.5h1.8c0.3 0 0.5 0.2 0.5 0.5v15.4c0
5.3 2.1 7.8 6.5 7.8 3.8 0 6.8-2.7 6.8-7.3v-16c0-0.3 0.2-0.5 0.5-0.5h1.8c0.3 0
0.5 0.2 0.5 0.5v25c0 0.3-0.2 0.5-0.5
0.5h-1.8zm-40.8-6.3c-0.5-1.8-0.8-3.7-0.8-6.8s0.3-5 0.8-6.8c1.4-4.3 4.8-6.8
9.4-6.8 4.7 0 8.1 2.5 9.5 6.8 0.5 1.8 0.8 3.7 0.8 6.8 0 3.2-0.3 5.1-0.8 6.8-1.4
4.3-4.8 6.8-9.5 6.8-4.6 0-8-2.5-9.4-6.8m16.2-0.9c0.5-1.5 0.7-3.1
0.7-5.9s-0.2-4.4-0.7-5.9c-1-3.1-3.4-4.9-6.7-4.9-3.2 0-5.7 1.8-6.7 4.9-0.5
1.5-0.7 3.1-0.7 5.9s0.2 4.4 0.7 5.9c1 3.1 3.4 4.9 6.7 4.9s5.7-1.8 6.7-4.9m-33.1
7.2c-0.3 0-0.5-0.2-0.5-0.5v-25c0-0.3 0.2-0.5 0.5-0.5h1.8c0.3 0 0.5 0.2 0.5
0.5v3.3h0.1c1-2.6 3.2-4.4 6.8-4.4 2 0 3.9 0.7 5.1 1.8 0.3 0.2 0.3 0.4 0.1
0.7l-1.1 1.5c-0.2 0.3-0.5 0.3-0.8 0.1-1.2-0.8-2.4-1.3-4-1.3-4.4 0-6.1 4-6.1
8.8v14.5c0 0.3-0.2 0.5-0.5 0.5h-1.8zm-31.1-18.7c0-6.5 0.4-8.9 1-10.8 1.7-5.5
5.9-8.4 11.8-8.4s9.5 3 11.3 6.9c0.1 0.3 0.1 0.5-0.2 0.7l-1.7 0.9c-0.3 0.1-0.5
0.1-0.7-0.2-1.8-3.4-4.4-5.3-8.7-5.3-4.4 0-7.5 2.2-8.8 6.3-0.5 1.4-0.8 3.7-0.8
9.9s0.4 8.5 0.8 9.9c1.3 4.1 4.3 6.3 8.8 6.3 4.3 0 7.5-2.1 8.8-6.2 0.5-1.4
0.8-3.6 0.8-7.1 0-0.2-0.1-0.3-0.3-0.3h-8.2c-0.3 0-0.5-0.2-0.5-0.5v-1.8c0-0.3
0.2-0.5 0.5-0.5h11c0.3 0 0.5 0.2 0.5 0.5v2.2c0 3.7-0.4 6.6-1 8.3-1.7 5.5-5.9
8.4-11.6 8.4-5.9 0-1e1 -2.8-11.8-8.4-0.6-1.9-1-4.3-1-10.8m-65.7-18c0-0.3
0.2-0.6 0.5-0.5h5.2c0.3 0 0.5 0.2 0.5 0.5v30.6c0 0.2 0.1 0.3 0.3 0.3h14.7c0.3 0
0.5 0.2 0.5 0.5v4.7c0 0.3-0.2 0.5-0.5 0.5h-20.8c-0.3
0-0.5-0.2-0.5-0.5v-36.1zm-28.8 0c0-0.3 0.2-0.6 0.5-0.5h21.9c0.3 0 0.5 0.2 0.5
0.5v4.7c0 0.3-0.2 0.5-0.5 0.5h-15.8c-0.2 0-0.3 0.1-0.3 0.3v9.1c0 0.2 0.1 0.3
0.3 0.3h12.7c0.3 0 0.5 0.2 0.5 0.5v4.7c0 0.3-0.2 0.5-0.5 0.5h-12.7c-0.2 0-0.3
0.1-0.3 0.3v9.4c0 0.2 0.1 0.3 0.3 0.3h15.8c0.3 0 0.5 0.2 0.5 0.5v4.7c0 0.3-0.2
0.5-0.5 0.5h-21.9c-0.3 0-0.5-0.2-0.5-0.5v-36.1zm-11.7 36.7c-0.4
0-0.6-0.2-0.8-0.5l-6.9-14.5h-6.2c-0.2 0-0.3 0.1-0.3 0.3v14.2c0 0.3-0.2 0.5-0.5
0.5h-5.2c-0.3 0-0.5-0.2-0.5-0.5v-36.1c0-0.3 0.2-0.6 0.5-0.5h13.9c6.6 0 11.5 4.5
11.5 11.1 0 4.9-2.7 8.6-6.8 10.2l7.6 15.2c0.2 0.4 0 0.7-0.4
0.7h-5.9zm-0.7-26.1c0-3.2-2.2-5.3-5.5-5.3h-7.7c-0.2 0-0.3 0.1-0.3 0.3v9.9c0 0.2
0.1 0.3 0.3 0.3h7.7c3.3 0 5.5-2.1 5.5-5.3"/></svg>
